{"title":"Warrior 2011 DVDScr XVID AC3 HQ Hive CM8","uid":6841314,"size":1753501373,"categoryP":"video","categoryS":"movies","magnet":"?xt=urn:btih:bcb36222db49c814f908ab8a769652f63a40c317&amp;dn=Warrior+2011+DVDScr+XVID+AC3+HQ+Hive+CM8&amp;tr=udp%3A%2F%2Ftracker.openbittorrent.com%3A80&amp;tr=udp%3A%2F%2Fopen.demonii.com%3A1337&amp;tr=udp%3A%2F%2Ftracker.coppersurfer.tk%3A6969&amp;tr=udp%3A%2F%2Fexodus.desync.com%3A6969","seeders":0,"leechers":0,"uploader":"BazSta","files":7,"time":1322173202,"description":"Warrior.2011.DVDScr.XVID.AC3.HQ.Hive-CM8\n\nThx Hive\n\nCM8 Doing It Right The First Time\n\nSource: cookies mkv thx\n\nEncode:\n\nGreat movie but file had that usual handbrake convert problems with variable video bitrate which makes it hard to convert to any format, without audio getting oos to video.\nVideo itself had some noise but was very nice.\nremoved that noise, added brightness, sharpness,rgb.\nresynced the audio on various places. audio moved from -200 to +200ms forward and backwards.\nThis great movie deserves a lipsync version.\nAs a bonus there are english subs attached now.\ntried to make video to decent size without losing quality.\ngot very nice\n\nVideo: 720x304 @bitrate 1400 2pass\nAudio: English AC3 2.0 Stereo\nSample: yes included\nSubs: yes english in srt /subs\n\n &lt;a href=&quot;\nhttp://www.imdb.com/title/tt1291584/&quot; rel=&quot;nofollow&quot; target=&quot;_NEW&quot;&gt;\nhttp://www.imdb.com/title/tt1291584/&lt;/a&gt;\n\n\nGeneral\nComplete name                  : Warrior.2011.DVDScr.XVID.AC3.HQ.Hive-CM8.avi\nFormat                         : AVI\nFormat/Info                    : Audio Video Interleave\nFile size                      : 1.63 GiB\nDuration                       : 2h 19mn\nOverall bit rate               : 1 665 Kbps\nWriting application            : Nandub v1.0rc2\nWriting library                : Nandub build 1853/release\n\nVideo\nID                             : 0\nFormat                         : MPEG-4 Visual\nFormat profile                 : Advanced Simple@L5\nFormat settings, BVOP          : 2\nFormat settings, QPel          : Yes\nFormat settings, GMC           : No warppoints\nFormat settings, Matrix        : Default (H.263)\nMuxing mode                    : Packed bitstream\nCodec ID                       : XVID\nCodec ID/Hint                  : XviD\nDuration                       : 2h 19mn\nBit rate                       : 1 400 Kbps\nWidth                          : 720 pixels\nHeight                         : 304 pixels\nDisplay aspect ratio           : 2.35:1\nFrame rate                     : 23.976 fps\nColor space                    : YUV\nChroma subsampling             : 4:2:0\nBit depth                      : 8 bits\nScan type                      : Progressive\nCompression mode               : Lossy\nBits/(Pixel*Frame)             : 0.267\nStream size                    : 1.37 GiB (84%)\nWriting library                : XviD 1.2.1 (UTC 2008-12-04)\n\nAudio\nID                             : 1\nFormat                         : AC-3\nFormat/Info                    : Audio Coding 3\nMode extension                 : CM (complete main)\nCodec ID                       : 2000\nDuration                       : 2h 19mn\nBit rate mode                  : Constant\nBit rate                       : 256 Kbps\nChannel(s)                     : 2 channels\nChannel positions              : Front: L R\nSampling rate                  : 48.0 KHz\nBit depth                      : 16 bits\nCompression mode               : Lossy\nStream size                    : 256 MiB (15%)\nAlignment                      : Split accross interleaves\nInterleave, duration           : 42 ms (1.00 video frame)\nInterleave, preload duration   : 500 ms\n\n\n\nPlot:\n\nThe youngest son (Hardy) of an alcoholic former boxer (Nolte) returns home, where he's trained\nby his father for competition in a mixed martial arts tournament -- a path that puts the fighter\non a collision corner with his older brother (Edgerton)\n\n\nCast:\n\nJoel Edgerton ... Brendan Conlon\nTom Hardy ... Tommy Conlon\nNick Nolte ... Paddy Conlon\nJennifer Morrison ... Tess Conlon\n\n\n\n","torrent":{"xt":"urn:btih:bcb36222db49c814f908ab8a769652f63a40c317","amp;dn":"Warrior+2011+DVDScr+XVID+AC3+HQ+Hive+CM8","amp;tr":["udp%3A%2F%2Ftracker.openbittorrent.com%3A80","udp%3A%2F%2Fopen.demonii.com%3A1337","udp%3A%2F%2Ftracker.coppersurfer.tk%3A6969","udp%3A%2F%2Fexodus.desync.com%3A6969"],"infoHash":"bcb36222db49c814f908ab8a769652f63a40c317","infoHashBuffer":{"type":"Buffer","data":[188,179,98,34,219,73,200,20,249,8,171,138,118,150,82,246,58,64,195,23]},"announce":[],"urlList":[]}}